<?xml version="1.0" encoding="UTF-8"?>
<svg width="100px" height="24px" viewBox="0 0 100 24" version="1.1" xmlns="http://www.w3.org/2000/svg" xmlns:xlink="http://www.w3.org/1999/xlink">
    <!-- Generator: Sketch 62 (91390) - https://sketch.com -->
    <title>logo_main_color_w</title>
    <desc>Created with Sketch.</desc>
    <g id="etc" stroke="none" stroke-width="1" fill="none" fill-rule="evenodd">
        <g id="Artboard" transform="translate(-131.000000, -164.000000)" fill-rule="nonzero">
            <g id="logo_main_color_w" transform="translate(131.000000, 164.000000)">
                <path d="M0.835534214,8.32248939 C0.835534214,7.68882603 1.31979571,7.15417256 1.88153906,7.15417256 L2.0558732,7.15417256 C2.65635746,7.15417256 3.10187804,7.68882603 3.10187804,8.32248939 L3.10187804,17.688826 C3.10187804,18.3224894 2.61761654,18.8571429 2.0558732,18.8571429 L1.88153906,18.8571429 C1.30042525,18.8571429 0.835534214,18.3224894 0.835534214,17.688826 L0.835534214,8.32248939 L0.835534214,8.32248939 Z M1.97839136,5.19377652 C2.59824608,5.19377652 3.1212485,4.65912306 3.1212485,4.02545969 C3.1212485,3.39179632 2.59824608,2.85714286 1.97839136,2.85714286 C1.35853663,2.85714286 0.835534214,3.39179632 0.835534214,4.02545969 C0.835534214,4.65912306 1.35853663,5.19377652 1.97839136,5.19377652 L1.97839136,5.19377652 Z" id="i_36_" fill="#FF3186"></path>
                <path d="M19.1212485,13.0152284 L19.1212485,10.8494078 C19.1212485,9.5924583 18.0946141,8.56756103 16.8355342,8.56756103 C15.5764543,8.56756103 14.5498199,9.5924583 14.5498199,10.8494078 L14.5498199,13.0152284 L14.5498199,16.5540247 C14.5498199,17.1728306 14.0268175,17.694948 13.4069628,17.694948 C12.7871081,17.694948 12.2641056,17.1728306 12.2641056,16.5540247 L12.2641056,13.0152284 L12.2641056,10.8494078 C12.2641056,9.5924583 11.2374713,8.56756103 9.97839136,8.56756103 C8.71931145,8.56756103 7.69267707,9.5924583 7.69267707,10.8494078 L7.69267707,11.2361615 L7.69267707,11.2361615 L7.69267707,16.5733623 C7.69267707,17.1921682 7.16967465,17.7142857 6.54981993,17.7142857 C5.92996521,17.7142857 5.40696279,17.1921682 5.40696279,16.5733623 L5.40696279,11.2361615 C5.40696279,11.1974861 5.40696279,11.1588107 5.40696279,11.1007977 C5.40696279,11.0234469 5.40696279,10.9267585 5.40696279,10.8494078 C5.40696279,8.31617114 7.44086109,6.28571429 9.97839136,6.28571429 C11.353694,6.28571429 12.574033,6.8851825 13.4069628,7.83272903 C14.2398926,6.8851825 15.4602316,6.28571429 16.8355342,6.28571429 C19.3730645,6.28571429 21.4069628,8.31617114 21.4069628,10.8494078 C21.4069628,10.9267585 21.4069628,11.0234469 21.4069628,11.1007977 C21.4069628,11.139473 21.4069628,11.1781484 21.4069628,11.2361615 L21.4069628,16.5733623 C21.4069628,17.1921682 20.8839604,17.7142857 20.2641056,17.7142857 C19.6442509,17.7142857 19.1212485,17.1921682 19.1212485,16.5733623 L19.1212485,13.0152284 L19.1212485,13.0152284 Z" id="m_45_" fill="#FF3186"></path>
                <path d="M22.5498199,12 C22.5498199,8.84261501 25.1067207,6.28571429 28.2641056,6.28571429 C31.4214906,6.28571429 33.9783914,8.84261501 33.9783914,12 C33.9783914,15.157385 31.4214906,17.7142857 28.2641056,17.7142857 C26.9662848,17.7142857 25.7846868,17.2881356 24.8355342,16.5714286 L24.8355342,22.2857143 C24.8355342,22.905569 24.3125318,23.4285714 23.6926771,23.4285714 C23.0728223,23.4285714 22.5498199,22.905569 22.5498199,22.2857143 L22.5498199,12 L22.5498199,12 Z M28.2641056,15.4285714 C30.1430403,15.4285714 31.6926771,13.8789346 31.6926771,12 C31.6926771,10.1210654 30.1430403,8.57142857 28.2641056,8.57142857 C26.385171,8.57142857 24.8355342,10.1210654 24.8355342,12 C24.8355342,13.8789346 26.385171,15.4285714 28.2641056,15.4285714 L28.2641056,15.4285714 Z" id="p_43_" fill="#989EA6"></path>
                <path d="M40.8355342,8.56756103 C41.4553889,8.56756103 41.9783914,8.04544356 41.9783914,7.42663766 C41.9783914,6.80783176 41.4553889,6.28571429 40.8355342,6.28571429 C39.5377134,6.28571429 38.3561153,6.71114334 37.4069628,7.42663766 C37.4069628,6.80783176 36.8839604,6.28571429 36.2641056,6.28571429 C35.6442509,6.28571429 35.1212485,6.80783176 35.1212485,7.42663766 L35.1212485,16.5733623 C35.1212485,17.1921682 35.6442509,17.7142857 36.2641056,17.7142857 C36.8839604,17.7142857 37.4069628,17.1921682 37.4069628,16.5733623 L37.4069628,11.9903312 C37.4069628,10.1145758 38.9565996,8.56756103 40.8355342,8.56756103 Z" id="r_43_" fill="#989EA6"></path>
                <path d="M55.6563513,7.04960779 C55.4430393,6.44979237 54.7837112,6.1595591 54.1631671,6.37239683 C53.562015,6.58523456 53.251743,7.24309663 53.484447,7.84291205 L56.8392635,16.9755855 C57.0137915,17.4593076 57.4791995,17.7495409 57.9833916,17.7108431 C58.4875837,17.730192 58.9529917,17.4399587 59.1275198,16.9755855 L62.4823362,7.82356317 C62.6956482,7.22374775 62.3853762,6.56588568 61.8036161,6.35304795 C61.183072,6.14021022 60.543136,6.44979237 60.3104319,7.0302589 L57.9833916,13.376693 L55.6563513,7.04960779 Z" id="v_43_" fill="#989EA6"></path>
                <path d="M71.6926771,16.5709594 C70.7435245,17.2876338 69.5619265,17.7137644 68.2641056,17.7137644 C65.1067207,17.7137644 62.5498199,15.1569803 62.5498199,11.9997394 C62.5498199,8.84249839 65.1067207,6.28571429 68.2641056,6.28571429 C71.4214906,6.28571429 73.9783914,8.84249839 73.9783914,11.9997394 L73.9783914,16.5709594 C73.9783914,17.1907859 73.4553889,17.7137644 72.8355342,17.7137644 C72.2156795,17.733134 71.6926771,17.2101554 71.6926771,16.5709594 L71.6926771,16.5709594 Z M68.2641056,15.4281544 C70.1430403,15.4281544 71.6926771,13.8785883 71.6926771,11.9997394 C71.6926771,10.1208904 70.1430403,8.57132432 68.2641056,8.57132432 C66.385171,8.57132432 64.8355342,10.1208904 64.8355342,11.9997394 C64.8355342,13.8785883 66.385171,15.4281544 68.2641056,15.4281544 L68.2641056,15.4281544 Z" id="a_43_" fill="#989EA6"></path>
                <path d="M86.5498199,12.0064495 C86.5498199,15.1602709 83.9929192,17.7142857 80.8355342,17.7142857 C77.6781492,17.7142857 75.1212485,15.1602709 75.1212485,12.0064495 C75.1212485,8.85262818 77.6781492,6.29861335 80.8355342,6.29861335 C82.133355,6.29861335 83.3149531,6.72428249 84.2641056,7.44018059 L84.2641056,1.71299581 C84.2641056,1.0938407 84.7871081,0.571428571 85.4069628,0.571428571 C86.0268175,0.571428571 86.5498199,1.0938407 86.5498199,1.71299581 L86.5498199,12.0064495 L86.5498199,12.0064495 L86.5498199,12.0064495 Z M80.8355342,8.58174782 C78.9565996,8.58174782 77.4069628,10.1296356 77.4069628,12.0064495 C77.4069628,13.8832635 78.9565996,15.4311512 80.8355342,15.4311512 C82.7144688,15.4311512 84.2641056,13.8832635 84.2641056,12.0064495 C84.2641056,10.1296356 82.7144688,8.58174782 80.8355342,8.58174782 L80.8355342,8.58174782 L80.8355342,8.58174782 Z" id="d_43_" fill="#989EA6"></path>
                <path d="M93.4069628,6.28571429 C90.2495778,6.28571429 87.6926771,8.84261501 87.6926771,12 C87.6926771,15.157385 90.2495778,17.7142857 93.4069628,17.7142857 C96.5643478,17.7142857 99.1212485,15.157385 99.1212485,12 C99.1212485,8.84261501 96.5643478,6.28571429 93.4069628,6.28571429 Z M93.4069628,15.4285714 C91.5280282,15.4285714 89.9783914,13.8789346 89.9783914,12 C89.9783914,10.1210654 91.5280282,8.57142857 93.4069628,8.57142857 C95.2858974,8.57142857 96.8355342,10.1210654 96.8355342,12 C96.8355342,13.8789346 95.2858974,15.4285714 93.4069628,15.4285714 Z" id="Shape" fill="#989EA6"></path>
                <path d="M46.5498199,6.28571429 C43.3924349,6.28571429 40.8355342,8.84261501 40.8355342,12 C40.8355342,15.157385 43.3924349,17.7142857 46.5498199,17.7142857 C49.7072049,17.7142857 52.2641056,15.157385 52.2641056,12 C52.2641056,8.84261501 49.7072049,6.28571429 46.5498199,6.28571429 Z M46.5498199,15.4285714 C44.6708853,15.4285714 43.1212485,13.8789346 43.1212485,12 C43.1212485,10.1210654 44.6708853,8.57142857 46.5498199,8.57142857 C48.4287546,8.57142857 49.9783914,10.1210654 49.9783914,12 C49.9783914,13.8789346 48.4287546,15.4285714 46.5498199,15.4285714 Z" id="Shape" fill="#989EA6"></path>
            </g>
        </g>
    </g>
</svg>