<?xml version="1.0" encoding="utf-8"?>
<!-- Generator: Adobe Illustrator 23.0.1, SVG Export Plug-In . SVG Version: 6.00 Build 0)  -->
<svg version="1.1" id="Слой_1" xmlns="http://www.w3.org/2000/svg" xmlns:xlink="http://www.w3.org/1999/xlink" x="0px" y="0px"
	 viewBox="0 0 512 140" style="enable-background:new 0 0 512 140;" xml:space="preserve">
<style type="text/css">
.st0{fill:#FF3186;}
.st1{fill:#231F20;}
</style>
<g>
	<path id="i_36_" class="st0" d="M0,46.7c0-3.2,2.5-5.9,5.4-5.9h0.9c3.1,0,5.4,2.7,5.4,5.9v47.3c0,3.2-2.5,5.9-5.4,5.9H5.4
		c-3,0-5.4-2.7-5.4-5.9V46.7L0,46.7z M5.9,30.9c3.2,0,5.9-2.7,5.9-5.9s-2.7-5.9-5.9-5.9S0,21.8,0,25S2.7,30.9,5.9,30.9L5.9,30.9z"/>
	<path id="m_45_" class="st0" d="M90.6,75.6V64.4c0-6.5-5.3-11.8-11.8-11.8c-6.5,0-11.8,5.3-11.8,11.8v11.2v18.3
		c0,3.2-2.7,5.9-5.9,5.9c-3.2,0-5.9-2.7-5.9-5.9V75.6V64.4c0-6.5-5.3-11.8-11.8-11.8s-11.8,5.3-11.8,11.8v2l0,0v27.6
		c0,3.2-2.7,5.9-5.9,5.9s-5.9-2.7-5.9-5.9V66.4c0-0.2,0-0.4,0-0.7c0-0.4,0-0.9,0-1.3c0-13.1,10.5-23.6,23.6-23.6
		c7.1,0,13.4,3.1,17.7,8c4.3-4.9,10.6-8,17.7-8c13.1,0,23.6,10.5,23.6,23.6c0,0.4,0,0.9,0,1.3c0,0.2,0,0.4,0,0.7v27.6
		c0,3.2-2.7,5.9-5.9,5.9c-3.2,0-5.9-2.7-5.9-5.9V75.6L90.6,75.6z"/>
	<path id="p_43_" class="st1" d="M109.3,70.3c0-16.3,13.2-29.5,29.5-29.5s29.5,13.2,29.5,29.5s-13.2,29.5-29.5,29.5
		c-6.7,0-12.8-2.2-17.7-5.9v29.5c0,3.2-2.7,5.9-5.9,5.9c-3.2,0-5.9-2.7-5.9-5.9V70.3L109.3,70.3z M138.8,88c9.7,0,17.7-8,17.7-17.7
		s-8-17.7-17.7-17.7c-9.7,0-17.7,8-17.7,17.7S129.1,88,138.8,88L138.8,88z"/>
	<path id="r_43_" class="st1" d="M203.8,52.6c3.2,0,5.9-2.7,5.9-5.9c0-3.2-2.7-5.9-5.9-5.9c-6.7,0-12.8,2.2-17.7,5.9
		c0-3.2-2.7-5.9-5.9-5.9s-5.9,2.7-5.9,5.9v47.3c0,3.2,2.7,5.9,5.9,5.9s5.9-2.7,5.9-5.9V70.3C186.1,60.6,194.1,52.6,203.8,52.6z"/>
	<path id="v_43_" class="st1" d="M282.4,44.7c-1.1-3.1-4.5-4.6-7.7-3.5c-3.1,1.1-4.7,4.5-3.5,7.6l17.3,47.2c0.9,2.5,3.3,4,5.9,3.8
		c2.6,0.1,5-1.4,5.9-3.8l17.3-47.3c1.1-3.1-0.5-6.5-3.5-7.6c-3.2-1.1-6.5,0.5-7.7,3.5l-12,32.8L282.4,44.7z"/>
	<path id="a_43_" class="st1" d="M368.2,93.9c-4.9,3.7-11,5.9-17.7,5.9c-16.3,0-29.5-13.2-29.5-29.5s13.2-29.5,29.5-29.5
		c16.3,0,29.5,13.2,29.5,29.5v23.6c0,3.2-2.7,5.9-5.9,5.9C370.9,99.9,368.2,97.2,368.2,93.9L368.2,93.9z M350.5,88
		c9.7,0,17.7-8,17.7-17.7s-8-17.7-17.7-17.7s-17.7,8-17.7,17.7S340.8,88,350.5,88L350.5,88z"/>
	<path id="d_43_" class="st1" d="M446,70.3c0,16.3-13.2,29.5-29.5,29.5c-16.3,0-29.5-13.2-29.5-29.5s13.2-29.5,29.5-29.5
		c6.7,0,12.8,2.2,17.7,5.9V17.1c0-3.2,2.7-5.9,5.9-5.9s5.9,2.7,5.9,5.9V70.3L446,70.3L446,70.3z M416.5,52.6
		c-9.7,0-17.7,8-17.7,17.7s8,17.7,17.7,17.7s17.7-8,17.7-17.7S426.2,52.6,416.5,52.6L416.5,52.6L416.5,52.6z"/>
	<path class="st1" d="M482.5,40.8c-16.3,0-29.5,13.2-29.5,29.5s13.2,29.5,29.5,29.5c16.3,0,29.5-13.2,29.5-29.5
		S498.8,40.8,482.5,40.8z M482.5,88c-9.7,0-17.7-8-17.7-17.7s8-17.7,17.7-17.7s17.7,8,17.7,17.7S492.2,88,482.5,88z"/>
	<path class="st1" d="M238.3,40.8c-16.3,0-29.5,13.2-29.5,29.5s13.2,29.5,29.5,29.5s29.5-13.2,29.5-29.5S254.6,40.8,238.3,40.8z
		 M238.3,88c-9.7,0-17.7-8-17.7-17.7s8-17.7,17.7-17.7c9.7,0,17.7,8,17.7,17.7S248,88,238.3,88z"/>
</g>
</svg>
